<svg width="24" height="24" viewBox="0 0 24 24" fill="none" xmlns="http://www.w3.org/2000/svg">
<g clip-path="url(#clip0_812_145)">
<path d="M2.9999 1.19995C2.00579 1.19995 1.1999 2.00584 1.1999 2.99995V2.99995C1.1999 3.99406 2.00579 4.79995 2.9999 4.79995H11.8335C13.6153 4.79995 14.5076 6.95423 13.2477 8.21416L0.668901 20.793C-0.0319484 21.4938 -0.031947 22.6301 0.668902 23.331V23.331C1.36975 24.0318 2.50605 24.0318 3.2069 23.331L15.7857 10.7522C17.0456 9.49223 19.1999 10.3846 19.1999 12.1664V21C19.1999 21.9941 20.0058 22.8 20.9999 22.8V22.8C21.994 22.8 22.7999 21.9941 22.7999 21V3.19995C22.7999 2.09538 21.9045 1.19995 20.7999 1.19995H2.9999Z" fill="url(#paint0_linear_812_145)"/>
</g>
<defs>
<linearGradient id="paint0_linear_812_145" x1="11.0999" y1="1.19995" x2="11.0999" y2="24.6" gradientUnits="userSpaceOnUse">
<stop stop-color="#FF510B"/>
<stop offset="1" stop-color="#FF9447"/>
</linearGradient>
<clipPath id="clip0_812_145">
<rect width="24" height="24" fill="white"/>
</clipPath>
</defs>
</svg>
