<svg width="194" height="32" viewBox="0 0 194 32" fill="none" xmlns="http://www.w3.org/2000/svg">
<path d="M2.80332 5.50391C1.96989 6.32397 1.4541 7.45836 1.4541 8.71194V22.9999C1.4541 24.7828 2.51335 26.3998 4.16005 27.1307L6.37524 28.1139V18.5783L10.6832 21.9324V13.2171L2.80332 5.50391Z" fill="url(#paint0_linear_1687_200)"/>
<path opacity="0.7" d="M2.80332 5.50391C1.96989 6.32397 1.4541 7.45836 1.4541 8.71194V22.9999C1.4541 24.7828 2.51335 26.3998 4.16005 27.1307L6.37524 28.1139V18.5783L10.6832 21.9324V13.2171L2.80332 5.50391Z" fill="url(#paint1_linear_1687_200)"/>
<path d="M10.6836 1.95214V13.2172V21.9326V25.1892V30.0262L14.318 31.6392C14.7311 31.8222 15.1648 31.9402 15.6047 31.9965V0C15.6047 0 15.0095 0.0697193 14.5153 0.278877L10.6836 1.95214Z" fill="url(#paint2_linear_1687_200)"/>
<path d="M29.3343 5.50977L23.717 11.0571L21.6777 9.04319V14.7309L23.717 16.8536L25.8285 14.7684V28.1256L28.004 27.1405C29.6331 26.4024 30.6775 24.7944 30.6775 23.0243V8.71207C30.6775 7.46149 30.1642 6.32931 29.3343 5.50977Z" fill="url(#paint3_linear_1687_200)"/>
<path opacity="0.5" d="M29.3343 5.50977L23.717 11.0571L21.6777 9.04319V14.7309L23.717 16.8536L25.8285 14.7684V28.1256L28.004 27.1405C29.6331 26.4024 30.6775 24.7944 30.6775 23.0243V8.71207C30.6775 7.46149 30.1642 6.32931 29.3343 5.50977Z" fill="url(#paint4_linear_1687_200)"/>
<path d="M16.7568 0V32C17.0008 31.9702 17.2427 31.9209 17.4805 31.8522L21.678 30.0053V14.7309V1.9521L17.4805 0.139439C17.1275 0.0697193 16.7568 0 16.7568 0Z" fill="url(#paint5_linear_1687_200)"/>
<path d="M55.5508 7.4375V24.5H51.4492L45.4141 13.8828V24.5H41.3008V7.4375H45.4141L51.4492 18.0547V7.4375H55.5508ZM72.9273 17.4453V17.9141C72.9273 18.9531 72.7672 19.8906 72.4469 20.7266C72.1266 21.5625 71.6734 22.2773 71.0875 22.8711C70.5016 23.457 69.8102 23.9062 69.0133 24.2188C68.2164 24.5312 67.3414 24.6875 66.3883 24.6875C65.4195 24.6875 64.5328 24.5312 63.7281 24.2188C62.9312 23.9062 62.2398 23.457 61.6539 22.8711C61.068 22.2773 60.6148 21.5625 60.2945 20.7266C59.9742 19.8906 59.8141 18.9531 59.8141 17.9141V17.4453C59.8141 16.3984 59.9703 15.4609 60.2828 14.6328C60.6031 13.7969 61.0523 13.082 61.6305 12.4883C62.2164 11.8945 62.9078 11.4414 63.7047 11.1289C64.5094 10.8164 65.3961 10.6602 66.3648 10.6602C67.318 10.6602 68.193 10.8164 68.9898 11.1289C69.7867 11.4414 70.4781 11.8945 71.0641 12.4883C71.6578 13.082 72.1148 13.7969 72.4352 14.6328C72.7633 15.4609 72.9273 16.3984 72.9273 17.4453ZM68.943 17.9141V17.4336C68.943 16.832 68.8844 16.3008 68.7672 15.8398C68.65 15.3711 68.4781 14.9766 68.2516 14.6562C68.0328 14.3359 67.7633 14.0938 67.443 13.9297C67.1305 13.7578 66.7711 13.6719 66.3648 13.6719C65.9352 13.6719 65.5562 13.7578 65.2281 13.9297C64.9078 14.0938 64.6422 14.3359 64.4312 14.6562C64.2203 14.9766 64.0602 15.3711 63.9508 15.8398C63.8492 16.3008 63.7984 16.832 63.7984 17.4336V17.9141C63.7984 18.5 63.8492 19.0273 63.9508 19.4961C64.0602 19.957 64.2242 20.3516 64.443 20.6797C64.6617 21.0078 64.9312 21.2578 65.2516 21.4297C65.5797 21.6016 65.9586 21.6875 66.3883 21.6875C66.7867 21.6875 67.1422 21.6016 67.4547 21.4297C67.775 21.2578 68.0445 21.0078 68.2633 20.6797C68.482 20.3516 68.65 19.957 68.7672 19.4961C68.8844 19.0273 68.943 18.5 68.943 17.9141ZM79.2414 7.4375H82.593L86.4016 19.3086L90.2102 7.4375H93.5617L87.7609 24.5H85.0422L79.2414 7.4375ZM77.2023 7.4375H80.6711L81.3156 20.5156V24.5H77.2023V7.4375ZM92.132 7.4375H95.6125V24.5H91.4875V20.5156L92.132 7.4375ZM113.024 17.4453V17.9141C113.024 18.9531 112.864 19.8906 112.544 20.7266C112.223 21.5625 111.77 22.2773 111.184 22.8711C110.598 23.457 109.907 23.9062 109.11 24.2188C108.313 24.5312 107.438 24.6875 106.485 24.6875C105.516 24.6875 104.63 24.5312 103.825 24.2188C103.028 23.9062 102.337 23.457 101.751 22.8711C101.165 22.2773 100.712 21.5625 100.391 20.7266C100.071 19.8906 99.9109 18.9531 99.9109 17.9141V17.4453C99.9109 16.3984 100.067 15.4609 100.38 14.6328C100.7 13.7969 101.149 13.082 101.727 12.4883C102.313 11.8945 103.005 11.4414 103.802 11.1289C104.606 10.8164 105.493 10.6602 106.462 10.6602C107.415 10.6602 108.29 10.8164 109.087 11.1289C109.884 11.4414 110.575 11.8945 111.161 12.4883C111.755 13.082 112.212 13.7969 112.532 14.6328C112.86 15.4609 113.024 16.3984 113.024 17.4453ZM109.04 17.9141V17.4336C109.04 16.832 108.981 16.3008 108.864 15.8398C108.747 15.3711 108.575 14.9766 108.348 14.6562C108.13 14.3359 107.86 14.0938 107.54 13.9297C107.227 13.7578 106.868 13.6719 106.462 13.6719C106.032 13.6719 105.653 13.7578 105.325 13.9297C105.005 14.0938 104.739 14.3359 104.528 14.6562C104.317 14.9766 104.157 15.3711 104.048 15.8398C103.946 16.3008 103.895 16.832 103.895 17.4336V17.9141C103.895 18.5 103.946 19.0273 104.048 19.4961C104.157 19.957 104.321 20.3516 104.54 20.6797C104.759 21.0078 105.028 21.2578 105.348 21.4297C105.677 21.6016 106.055 21.6875 106.485 21.6875C106.884 21.6875 107.239 21.6016 107.552 21.4297C107.872 21.2578 108.141 21.0078 108.36 20.6797C108.579 20.3516 108.747 19.957 108.864 19.4961C108.981 19.0273 109.04 18.5 109.04 17.9141ZM129.475 10.8477V24.5H125.514L120.909 16.5547V24.5H116.948V10.8477H120.909L125.514 18.793V10.8477H129.475ZM138.801 24.5H135.461L135.484 21.4648H138.801C139.504 21.4648 140.059 21.3398 140.465 21.0898C140.871 20.8398 141.16 20.4531 141.332 19.9297C141.504 19.4062 141.59 18.7344 141.59 17.9141V17.4219C141.59 16.8359 141.543 16.3242 141.449 15.8867C141.355 15.4414 141.199 15.0742 140.98 14.7852C140.762 14.4883 140.465 14.2656 140.09 14.1172C139.715 13.9688 139.242 13.8945 138.672 13.8945H135.402V10.8477H138.672C139.672 10.8477 140.59 11.0117 141.426 11.3398C142.27 11.668 143 12.1289 143.617 12.7227C144.234 13.3164 144.711 14.0156 145.047 14.8203C145.391 15.6172 145.562 16.4922 145.562 17.4453V17.9141C145.562 19.1797 145.266 20.3086 144.672 21.3008C144.086 22.293 143.281 23.0742 142.258 23.6445C141.242 24.2148 140.09 24.5 138.801 24.5ZM137.746 10.8477V24.5H133.785V10.8477H137.746ZM155.533 15.1719L152.38 24.5H148.396L153.693 10.8477H156.435L155.533 15.1719ZM158.908 24.5L155.638 15.1953L154.713 10.8477H157.502L162.88 24.5H158.908ZM158.955 19.4141V22.1094H151.677V19.4141H158.955ZM170.191 17.9258L173.366 10.8477H177.609L172.64 20.1406H170.577L170.191 17.9258ZM168.515 10.8477L171.714 18.0078L171.28 20.1406H169.23L164.273 10.8477H168.515ZM172.886 18.043V24.5H168.913V18.043H172.886ZM188.399 20.7734C188.399 20.5781 188.356 20.4023 188.27 20.2461C188.192 20.082 188.063 19.9375 187.884 19.8125C187.704 19.6797 187.462 19.5547 187.157 19.4375C186.86 19.3203 186.493 19.2109 186.055 19.1094C185.149 18.8984 184.376 18.6719 183.735 18.4297C183.095 18.1875 182.575 17.9062 182.177 17.5859C181.778 17.2578 181.485 16.8672 181.298 16.4141C181.11 15.9531 181.016 15.4062 181.016 14.7734C181.016 14.1641 181.149 13.6094 181.415 13.1094C181.68 12.6016 182.052 12.168 182.528 11.8086C183.012 11.4414 183.575 11.1602 184.216 10.9648C184.864 10.7617 185.567 10.6602 186.325 10.6602C187.434 10.6602 188.427 10.8242 189.302 11.1523C190.184 11.4727 190.88 11.9492 191.387 12.582C191.895 13.2148 192.149 14.0039 192.149 14.9492H188.2C188.2 14.6836 188.122 14.4336 187.966 14.1992C187.817 13.9648 187.606 13.7734 187.333 13.625C187.059 13.4766 186.731 13.4023 186.348 13.4023C185.966 13.4023 185.653 13.4688 185.411 13.6016C185.169 13.7344 184.989 13.8945 184.872 14.082C184.762 14.2617 184.708 14.4336 184.708 14.5977C184.708 14.7695 184.743 14.9258 184.813 15.0664C184.884 15.1992 185.001 15.3242 185.165 15.4414C185.329 15.5508 185.544 15.6562 185.809 15.7578C186.083 15.8594 186.415 15.9609 186.805 16.0625C187.704 16.25 188.485 16.4727 189.149 16.7305C189.813 16.9805 190.36 17.2852 190.79 17.6445C191.227 17.9961 191.552 18.418 191.762 18.9102C191.981 19.4023 192.091 19.9805 192.091 20.6445C192.091 21.293 191.962 21.8672 191.704 22.3672C191.446 22.8672 191.075 23.2891 190.591 23.6328C190.114 23.9766 189.54 24.2383 188.868 24.418C188.196 24.5977 187.446 24.6875 186.618 24.6875C185.876 24.6875 185.141 24.6055 184.415 24.4414C183.696 24.2695 183.044 24 182.458 23.6328C181.88 23.2656 181.415 22.7891 181.063 22.2031C180.72 21.6094 180.548 20.8945 180.548 20.0586H184.509C184.509 20.3945 184.548 20.6836 184.626 20.9258C184.712 21.168 184.845 21.3672 185.024 21.5234C185.212 21.6719 185.458 21.7812 185.762 21.8516C186.067 21.9219 186.438 21.957 186.876 21.957C187.305 21.957 187.63 21.8906 187.848 21.7578C188.067 21.6172 188.212 21.457 188.282 21.2773C188.36 21.0898 188.399 20.9219 188.399 20.7734Z" fill="url(#paint6_linear_1687_200)"/>
<defs>
<linearGradient id="paint0_linear_1687_200" x1="9.0679" y1="23.2371" x2="-0.0557912" y2="9.37906" gradientUnits="userSpaceOnUse">
<stop stop-color="#FF4500"/>
<stop offset="0.825781" stop-color="#FF974B"/>
<stop offset="1" stop-color="#FF9447"/>
</linearGradient>
<linearGradient id="paint1_linear_1687_200" x1="11.9827" y1="18.4649" x2="1.98902" y2="16.1697" gradientUnits="userSpaceOnUse">
<stop offset="0.000712" stop-color="#A03460"/>
<stop offset="0.605" stop-color="#FFCE47" stop-opacity="0"/>
</linearGradient>
<linearGradient id="paint2_linear_1687_200" x1="13.4329" y1="33.7862" x2="13.0305" y2="9.94819" gradientUnits="userSpaceOnUse">
<stop stop-color="#FF4500"/>
<stop offset="1" stop-color="#FF9447"/>
</linearGradient>
<linearGradient id="paint3_linear_1687_200" x1="20.1778" y1="13.6473" x2="31.7877" y2="18.7451" gradientUnits="userSpaceOnUse">
<stop stop-color="#FF4500"/>
<stop offset="0.773339" stop-color="#FF974B"/>
<stop offset="1" stop-color="#FF9447"/>
</linearGradient>
<linearGradient id="paint4_linear_1687_200" x1="27.7804" y1="16.8143" x2="21.763" y2="16.9188" gradientUnits="userSpaceOnUse">
<stop offset="0.395" stop-color="#FFCE47" stop-opacity="0"/>
<stop offset="0.9993" stop-color="#A03460"/>
</linearGradient>
<linearGradient id="paint5_linear_1687_200" x1="19.4453" y1="33.6845" x2="19.0429" y2="9.84655" gradientUnits="userSpaceOnUse">
<stop stop-color="#FF4500"/>
<stop offset="1" stop-color="#FF9447"/>
</linearGradient>
<linearGradient id="paint6_linear_1687_200" x1="40" y1="1.5" x2="186.609" y2="53.2872" gradientUnits="userSpaceOnUse">
<stop stop-color="#FF9447"/>
<stop offset="1" stop-color="#FF510B"/>
</linearGradient>
</defs>
</svg>
