<svg width="24" height="24" viewBox="0 0 24 24" fill="none" xmlns="http://www.w3.org/2000/svg">
<g clip-path="url(#clip0_1690_1672)">
<path d="M20.667 0C22.5081 0.000175487 23.9998 1.49193 24 3.33301V20.667C23.9998 22.5081 22.5081 23.9998 20.667 24H3.33301C1.4926 23.9998 0.000175566 22.5081 0 20.667V3.33301C0.000175952 1.49193 1.4926 0.000175937 3.33301 0H20.667ZM4.59375 7.33301C4.08508 7.33301 4 7.58294 4 7.84961C4.00015 8.33099 4.40009 10.9296 6.58301 13.917C8.16634 16.0836 10.253 17.333 12.0996 17.333C13.218 17.333 13.333 17.0481 13.333 16.6035V14.623C13.3337 14.089 13.4555 14 13.8115 14C14.0656 14.0001 14.5835 14.1669 15.583 15.333C16.7363 16.6783 16.9461 17.333 17.6074 17.333H19.3525C19.7579 17.333 19.9907 17.163 20 16.833C20.002 16.7491 19.9902 16.6552 19.9629 16.5508C19.8336 16.1668 19.24 15.2277 18.5 14.333C18.0901 13.8378 17.685 13.3477 17.499 13.0811C17.3745 12.9072 17.3271 12.7842 17.333 12.667C17.339 12.5437 17.403 12.4257 17.499 12.2617C17.5046 12.23 19.7391 9.08928 19.958 8.02734C19.9887 7.92668 20.003 7.83333 19.999 7.75C19.989 7.50867 19.8233 7.33301 19.4326 7.33301H17.6875C17.2469 7.33301 17.0435 7.59991 16.9248 7.86719C16.9248 7.86719 15.8369 10.1063 14.583 11.583C14.1763 12.0103 13.969 12 13.749 12C13.6308 11.9998 13.333 11.8568 13.333 11.4658V8.00977C13.333 7.54725 13.2181 7.33315 12.8457 7.33301H9.74609C9.47476 7.33301 9.33301 7.54674 9.33301 7.76074C9.33307 8.2053 9.9319 8.31205 10 9.55762V11.9736C9.99997 12.56 9.8977 12.667 9.67773 12.667C9.08432 12.6664 7.91665 10.6659 7.13477 8.04492C6.96549 7.52923 6.79594 7.33305 6.35547 7.33301H4.59375Z" fill="white"/>
</g>
<defs>
<clipPath id="clip0_1690_1672">
<rect width="24" height="24" fill="white"/>
</clipPath>
</defs>
</svg>
