<svg width="1920" height="1080" viewBox="0 0 1920 1080" fill="none" xmlns="http://www.w3.org/2000/svg">
<g clip-path="url(#clip0_1885_280)">
<mask id="mask0_1885_280" style="mask-type:luminance" maskUnits="userSpaceOnUse" x="0" y="299" width="1920" height="646">
<path d="M1920 299H0V945H1920V299Z" fill="white"/>
</mask>
<g mask="url(#mask0_1885_280)">
<path d="M-48.1807 377.183C-48.1807 377.183 -36.4912 390.87 -28.3337 399.447C7.40761 437.028 25.4712 460.906 82.4302 489.123C136.876 516.096 185.806 515.993 246.348 538.528C310.594 562.442 324.835 595.651 399.294 608.532C473.001 621.283 522.458 583.37 595.709 596.919C671.495 610.937 665.39 665.377 744.001 675.664C836.87 687.817 871.454 607.146 966.509 611.461C1038.58 614.733 1074.26 638.859 1130.51 664.299C1200.39 695.9 1274.29 768.096 1274.29 768.096C1274.29 768.096 1348.8 819.808 1419.53 835.984C1486.3 851.254 1530.98 844.801 1602.63 849.383C1674.69 853.992 1716.04 852.46 1787.47 859.498C1845.98 865.262 1906.23 874.632 1935.35 879.498L1964.46 884.364L1964.43 884.411L1935.1 879.952C1935.1 879.952 1993.94 898.182 1935.35 893.524C1862.78 887.756 1673.6 863.876 1600.72 859.498C1529.12 855.196 1468.22 865.701 1402 849.383C1329.31 831.471 1245.5 771.871 1245.5 771.871L1120 668.076C1120 668.076 1039.07 624.187 966.509 620.088C869.994 614.636 838.379 685.492 745.081 673.636C666.993 663.712 673.539 607.656 597.213 594.097C522.538 580.832 473.684 622.354 398.615 609.807C323.546 597.26 313.276 559.837 247.851 535.705C187.575 513.472 137.178 516.146 81.8675 490.18C24.3037 463.156 1.28463 440.805 -29.9985 402.573C-37.9456 392.861 -48.1807 377.183 -48.1807 377.183Z" fill="url(#paint0_linear_1885_280)"/>
<path d="M-48.1807 427.867C-48.1807 427.867 -36.4912 441.554 -28.3337 450.131C7.40761 487.713 25.4712 511.59 82.4302 539.807C136.876 566.78 185.96 540.129 246.501 562.665C310.747 586.578 321.177 625.8 381.001 634.647C454.772 645.555 503.35 619.018 576.001 624.672C661.401 631.317 672.38 695.897 740.501 704.202C831.572 715.305 871.454 657.831 966.509 662.145C1038.58 665.417 1074.26 689.543 1130.51 714.983C1200.39 746.584 1274.29 818.78 1274.29 818.78C1274.29 818.78 1348.8 870.492 1419.53 886.669C1486.3 901.938 1530.98 895.485 1602.63 900.067C1674.69 904.676 1716.04 903.144 1787.47 910.182C1845.98 915.946 1906.23 925.317 1935.35 930.183L1964.46 935.048L1964.43 935.095L1935.1 930.636C1935.1 930.636 1993.94 948.866 1935.35 944.208C1862.78 938.44 1673.6 914.56 1600.72 910.182C1529.12 905.88 1468.22 916.385 1402 900.067C1329.31 882.155 1265.74 869.298 1208 831.721C1151.39 794.875 1125.39 771.2 1068.5 734.127C1029.76 708.886 1006.03 692.459 949.001 684.522C866.997 673.108 827.749 747.377 740.501 736.284C656.079 725.55 666.067 655.877 576.001 643.813C507.757 634.671 453.943 657.288 381.001 643.813C310.307 630.753 296.426 591.11 231.001 566.978C170.725 544.745 137.178 566.83 81.8675 540.864C24.3037 513.84 1.28463 491.489 -29.9985 453.257C-37.9456 443.545 -48.1807 427.867 -48.1807 427.867Z" fill="url(#paint1_linear_1885_280)"/>
<path d="M-28.3115 314.29C-28.3115 314.29 -16.622 327.977 -8.46448 336.554C27.2768 374.136 45.3404 398.013 102.299 426.23C156.745 453.203 205.675 453.1 266.217 475.635C330.464 499.549 344.704 532.759 419.163 545.639C492.87 558.39 542.326 520.478 615.578 534.027C691.363 548.044 685.26 602.484 763.87 612.771C856.74 624.924 889.914 550.497 984.969 554.811C1057.04 558.083 1094.13 575.966 1150.38 601.406C1220.26 633.007 1221.9 670.024 1285.01 705.815C1338.68 736.259 1368.67 756.915 1439.4 773.092C1506.17 788.361 1550.85 781.908 1622.5 786.49C1694.56 791.099 1735.91 789.567 1807.34 796.605C1865.85 802.369 1926.1 811.74 1955.22 816.606L1984.33 821.472L1984.3 821.518L1954.97 817.059C1954.97 817.059 1864.87 805.335 1806.28 800.677C1733.72 794.909 1693.46 794.446 1620.59 790.068C1548.99 785.767 1502.7 794.895 1436.48 778.576C1363.8 760.665 1341.59 733.633 1287.54 701.059C1228.31 665.366 1217.49 633.524 1149.45 603.149C1092.74 577.831 1058.94 556.266 986.378 552.167C889.863 546.715 858.248 622.6 764.951 610.743C686.863 600.819 693.408 544.763 617.081 531.204C542.407 517.939 493.553 559.462 418.484 546.915C343.414 534.368 333.145 496.944 267.72 472.812C207.443 450.58 157.046 453.253 101.736 427.287C44.1729 400.263 21.1538 377.912 -10.1293 339.68C-18.0764 329.968 -28.3115 314.29 -28.3115 314.29Z" fill="url(#paint2_linear_1885_280)"/>
<path d="M-37.7578 332.026C-37.7578 332.026 -26.0683 345.713 -17.9108 354.291C17.8305 391.872 35.8941 415.749 92.8531 443.967C147.299 470.939 196.229 470.836 256.771 493.371C321.017 517.285 335.258 550.495 409.717 563.376C483.424 576.126 532.88 538.214 606.132 551.763C681.918 565.78 675.813 620.221 754.423 630.507C847.293 642.66 880.468 568.233 975.523 572.548C1047.59 575.819 1084.68 593.702 1140.94 619.142C1210.82 650.743 1212.46 687.761 1275.56 723.552C1329.23 753.995 1359.23 774.651 1429.96 790.828C1496.72 806.097 1541.41 799.644 1613.05 804.226C1685.11 808.835 1726.46 807.303 1797.9 814.341C1856.41 820.106 1916.66 829.476 1945.77 834.342L1974.88 839.208L1974.86 839.254L1945.53 834.795C1945.53 834.795 1855.43 823.071 1796.83 818.413C1724.27 812.645 1684.02 812.183 1611.15 807.805C1539.54 803.503 1493.26 812.631 1427.04 796.313C1354.35 778.401 1332.15 751.369 1278.09 718.795C1218.86 683.102 1208.05 651.26 1140.01 620.886C1083.3 595.568 1049.5 574.003 976.931 569.904C880.417 564.452 848.802 640.336 755.504 628.479C677.416 618.555 683.962 562.499 607.635 548.941C532.961 535.675 484.107 577.198 409.038 564.651C333.968 552.104 323.699 514.681 258.274 490.549C197.997 468.316 147.601 470.989 92.2904 445.023C34.7266 418 11.7075 395.649 -19.5756 357.417C-27.5227 347.704 -37.7578 332.026 -37.7578 332.026Z" fill="url(#paint3_linear_1885_280)"/>
<path d="M-48.1816 351.597C-48.1816 351.597 -36.4921 365.284 -28.3346 373.862C7.40666 411.443 25.4703 435.32 82.4293 463.538C136.875 490.51 185.805 490.407 246.347 512.942C310.593 536.856 324.834 570.066 399.293 582.946C473 595.697 522.456 557.785 595.708 571.334C671.493 585.351 665.39 639.791 744 650.078C836.87 662.231 870.044 587.804 965.099 592.119C1037.17 595.39 1074.26 613.273 1130.51 638.713C1200.39 670.314 1202.03 707.332 1265.14 743.123C1318.81 773.566 1348.8 794.222 1419.53 810.399C1486.3 825.668 1530.98 819.215 1602.63 823.797C1674.69 828.406 1721.57 837.623 1793 844.661C1851.51 850.426 1901.89 861.633 1931 866.499L1960.11 871.365L1960.09 871.411L1930.76 866.952C1930.76 866.952 1850.53 853.391 1791.94 848.733C1719.37 842.965 1673.59 831.754 1600.72 827.376C1529.12 823.074 1482.83 832.202 1416.61 815.884C1343.93 797.972 1321.72 770.94 1267.67 738.366C1208.44 702.673 1197.62 670.831 1129.58 640.457C1072.87 615.138 1039.07 593.574 966.507 589.475C869.992 584.023 838.377 659.907 745.079 648.05C666.991 638.126 673.538 582.07 597.211 568.511C522.537 555.246 473.683 596.769 398.613 584.222C323.544 571.675 313.275 534.251 247.85 510.12C187.573 487.887 137.176 490.56 81.8665 464.594C24.3027 437.57 1.28366 415.219 -29.9994 376.987C-37.9465 367.275 -48.1816 351.597 -48.1816 351.597Z" fill="url(#paint4_linear_1885_280)"/>
</g>
</g>
<defs>
<linearGradient id="paint0_linear_1885_280" x1="-100.674" y1="475.743" x2="1677.65" y2="1422.88" gradientUnits="userSpaceOnUse">
<stop stop-color="#888888"/>
<stop offset="1" stop-color="#111111"/>
</linearGradient>
<linearGradient id="paint1_linear_1885_280" x1="-100.674" y1="526.427" x2="1677.65" y2="1473.56" gradientUnits="userSpaceOnUse">
<stop stop-color="#888888"/>
<stop offset="1" stop-color="#111111"/>
</linearGradient>
<linearGradient id="paint2_linear_1885_280" x1="-80.8046" y1="412.85" x2="1697.52" y2="1359.98" gradientUnits="userSpaceOnUse">
<stop stop-color="#888888"/>
<stop offset="1" stop-color="#111111"/>
</linearGradient>
<linearGradient id="paint3_linear_1885_280" x1="-90.2509" y1="430.586" x2="1688.07" y2="1377.72" gradientUnits="userSpaceOnUse">
<stop stop-color="#888888"/>
<stop offset="1" stop-color="#111111"/>
</linearGradient>
<linearGradient id="paint4_linear_1885_280" x1="-100.675" y1="450.157" x2="1677.65" y2="1397.29" gradientUnits="userSpaceOnUse">
<stop stop-color="#FF9447"/>
<stop offset="1" stop-color="#FF540E"/>
</linearGradient>
<clipPath id="clip0_1885_280">
<rect width="1920" height="646" fill="white" transform="translate(0 299)"/>
</clipPath>
</defs>
</svg>
