<svg width="1312" height="816" viewBox="0 0 1312 816" fill="none" xmlns="http://www.w3.org/2000/svg">
<g filter="url(#filter0_f_1881_251)">
<g filter="url(#filter1_f_1881_251)">
<path d="M124 177.149V238.85L71 269.686L18 238.85V177.149L71 146.313L124 177.149Z" stroke="url(#paint0_linear_1881_251)" stroke-width="4"/>
</g>
<path d="M184 49.1494V110.85L131 141.686L78 110.85V49.1494L131 18.3135L184 49.1494Z" stroke="url(#paint1_linear_1881_251)" stroke-width="4"/>
<path d="M266 177.149V238.85L213 269.686L160 238.85V177.149L213 146.313L266 177.149Z" stroke="url(#paint2_linear_1881_251)" stroke-width="4"/>
<path d="M326 49.1494V110.85L273 141.686L220 110.85V49.1494L273 18.3135L326 49.1494Z" stroke="url(#paint3_linear_1881_251)" stroke-width="4"/>
</g>
<g filter="url(#filter2_f_1881_251)">
<g filter="url(#filter3_f_1881_251)">
<path d="M1092 705.149V766.85L1039 797.686L986 766.85V705.149L1039 674.313L1092 705.149Z" stroke="url(#paint4_linear_1881_251)" stroke-width="4"/>
</g>
<path d="M1152 577.149V638.85L1099 669.686L1046 638.85V577.149L1099 546.313L1152 577.149Z" stroke="url(#paint5_linear_1881_251)" stroke-width="4"/>
<path d="M1234 705.149V766.85L1181 797.686L1128 766.85V705.149L1181 674.313L1234 705.149Z" stroke="url(#paint6_linear_1881_251)" stroke-width="4"/>
<path d="M1294 577.149V638.85L1241 669.686L1188 638.85V577.149L1241 546.313L1294 577.149Z" stroke="url(#paint7_linear_1881_251)" stroke-width="4"/>
</g>
<defs>
<filter id="filter0_f_1881_251" x="0" y="0" width="344" height="288" filterUnits="userSpaceOnUse" color-interpolation-filters="sRGB">
<feFlood flood-opacity="0" result="BackgroundImageFix"/>
<feBlend mode="normal" in="SourceGraphic" in2="BackgroundImageFix" result="shape"/>
<feGaussianBlur stdDeviation="8" result="effect1_foregroundBlur_1881_251"/>
</filter>
<filter id="filter1_f_1881_251" x="12" y="140" width="118" height="136" filterUnits="userSpaceOnUse" color-interpolation-filters="sRGB">
<feFlood flood-opacity="0" result="BackgroundImageFix"/>
<feBlend mode="normal" in="SourceGraphic" in2="BackgroundImageFix" result="shape"/>
<feGaussianBlur stdDeviation="2" result="effect1_foregroundBlur_1881_251"/>
</filter>
<filter id="filter2_f_1881_251" x="968" y="528" width="344" height="288" filterUnits="userSpaceOnUse" color-interpolation-filters="sRGB">
<feFlood flood-opacity="0" result="BackgroundImageFix"/>
<feBlend mode="normal" in="SourceGraphic" in2="BackgroundImageFix" result="shape"/>
<feGaussianBlur stdDeviation="8" result="effect1_foregroundBlur_1881_251"/>
</filter>
<filter id="filter3_f_1881_251" x="980" y="668" width="118" height="136" filterUnits="userSpaceOnUse" color-interpolation-filters="sRGB">
<feFlood flood-opacity="0" result="BackgroundImageFix"/>
<feBlend mode="normal" in="SourceGraphic" in2="BackgroundImageFix" result="shape"/>
<feGaussianBlur stdDeviation="2" result="effect1_foregroundBlur_1881_251"/>
</filter>
<linearGradient id="paint0_linear_1881_251" x1="71" y1="144" x2="71" y2="272" gradientUnits="userSpaceOnUse">
<stop stop-color="#FF9447"/>
<stop offset="1" stop-color="#FF5811"/>
</linearGradient>
<linearGradient id="paint1_linear_1881_251" x1="131" y1="16" x2="131" y2="144" gradientUnits="userSpaceOnUse">
<stop stop-color="#FF9447"/>
<stop offset="1" stop-color="#FF5811"/>
</linearGradient>
<linearGradient id="paint2_linear_1881_251" x1="213" y1="144" x2="213" y2="272" gradientUnits="userSpaceOnUse">
<stop stop-color="#FF9447"/>
<stop offset="1" stop-color="#FF5811"/>
</linearGradient>
<linearGradient id="paint3_linear_1881_251" x1="273" y1="16" x2="273" y2="144" gradientUnits="userSpaceOnUse">
<stop stop-color="#FF9447"/>
<stop offset="1" stop-color="#FF5811"/>
</linearGradient>
<linearGradient id="paint4_linear_1881_251" x1="1039" y1="672" x2="1039" y2="800" gradientUnits="userSpaceOnUse">
<stop stop-color="#FF9447"/>
<stop offset="1" stop-color="#FF5811"/>
</linearGradient>
<linearGradient id="paint5_linear_1881_251" x1="1099" y1="544" x2="1099" y2="672" gradientUnits="userSpaceOnUse">
<stop stop-color="#FF9447"/>
<stop offset="1" stop-color="#FF5811"/>
</linearGradient>
<linearGradient id="paint6_linear_1881_251" x1="1181" y1="672" x2="1181" y2="800" gradientUnits="userSpaceOnUse">
<stop stop-color="#FF9447"/>
<stop offset="1" stop-color="#FF5811"/>
</linearGradient>
<linearGradient id="paint7_linear_1881_251" x1="1241" y1="544" x2="1241" y2="672" gradientUnits="userSpaceOnUse">
<stop stop-color="#FF9447"/>
<stop offset="1" stop-color="#FF5811"/>
</linearGradient>
</defs>
</svg>
